solid rightSide
facet normal -0.061700404 -0.99809474 -0
 outer loop
  vertex 7.571001 1.411001 0.05882353
  vertex 7.571001 1.411001 1.54
  vertex 2.771001 1.7077283 1
 endloop
endfacet
facet normal -0.061700407 -0.9980947 0
 outer loop
  vertex 2.771001 1.7077283 1
  vertex 7.571001 1.411001 1.54
  vertex 2.071001 1.751001 1.54
 endloop
endfacet
facet normal -0.06170041 -0.9980948 0
 outer loop
  vertex 2.771001 1.7077283 1
  vertex 2.071001 1.751001 1.54
  vertex 2.071001 1.751001 1
 endloop
endfacet
facet normal -0 -1 0
 outer loop
  vertex 7.571001 1.411001 1.54
  vertex 7.571001 1.411001 0.05882353
  vertex 22.571001 1.411001 1.54
 endloop
endfacet
facet normal 0 -1 0
 outer loop
  vertex 22.571001 1.411001 1.54
  vertex 7.571001 1.411001 0.05882353
  vertex 22.571001 1.411001 4.440892e-16
 endloop
endfacet
facet normal 0 -1 0
 outer loop
  vertex 22.571001 1.411001 4.440892e-16
  vertex 7.571001 1.411001 0.05882353
  vertex 7.871001 1.411001 4.440892e-16
 endloop
endfacet
facet normal 0.9914449 -0.13052616 0
 outer loop
  vertex 0.320001 1e-06 1.54
  vertex 0.320001 1e-06 1
  vertex 0.37966487 0.45319316 1.54
 endloop
endfacet
facet normal 0.9914449 -0.13052616 0
 outer loop
  vertex 0.37966487 0.45319316 1.54
  vertex 0.320001 1e-06 1
  vertex 0.37966487 0.45319316 1
 endloop
endfacet
facet normal 0.9238795 -0.3826835 0
 outer loop
  vertex 0.37966487 0.45319316 1.54
  vertex 0.37966487 0.45319316 1
  vertex 0.5545905 0.875501 1.54
 endloop
endfacet
facet normal 0.9238795 -0.3826835 0
 outer loop
  vertex 0.5545905 0.875501 1.54
  vertex 0.37966487 0.45319316 1
  vertex 0.5545905 0.875501 1
 endloop
endfacet
facet normal 0.79335344 -0.60876137 0
 outer loop
  vertex 0.5545905 0.875501 1.54
  vertex 0.5545905 0.875501 1
  vertex 0.832857 1.238145 1.54
 endloop
endfacet
facet normal 0.79335344 -0.60876137 0
 outer loop
  vertex 0.832857 1.238145 1.54
  vertex 0.5545905 0.875501 1
  vertex 0.832857 1.238145 1
 endloop
endfacet
facet normal 0.6087613 -0.7933534 0
 outer loop
  vertex 0.832857 1.238145 1.54
  vertex 0.832857 1.238145 1
  vertex 1.195501 1.5164114 1.54
 endloop
endfacet
facet normal 0.6087613 -0.7933534 0
 outer loop
  vertex 1.195501 1.5164114 1.54
  vertex 0.832857 1.238145 1
  vertex 1.195501 1.5164114 1
 endloop
endfacet
facet normal 0.38268352 -0.9238795 0
 outer loop
  vertex 1.195501 1.5164114 1.54
  vertex 1.195501 1.5164114 1
  vertex 1.6178088 1.6913371 1.54
 endloop
endfacet
facet normal 0.38268352 -0.9238795 0
 outer loop
  vertex 1.6178088 1.6913371 1.54
  vertex 1.195501 1.5164114 1
  vertex 1.6178088 1.6913371 1
 endloop
endfacet
facet normal 0.1305262 -0.9914448 0
 outer loop
  vertex 1.6178088 1.6913371 1.54
  vertex 1.6178088 1.6913371 1
  vertex 2.071001 1.751001 1.54
 endloop
endfacet
facet normal 0.1305262 -0.9914448 0
 outer loop
  vertex 2.071001 1.751001 1.54
  vertex 1.6178088 1.6913371 1
  vertex 2.071001 1.751001 1
 endloop
endfacet
endsolid rightSide
